<svg width="17" height="16" viewBox="0 0 17 16" fill="none" xmlns="http://www.w3.org/2000/svg">
<path d="M11.3334 1.33325V3.99992M5.66669 1.33325V3.99992" stroke="#8D8D8D" stroke-linecap="round" stroke-linejoin="round"/>
<path d="M14.875 8.66675V8.00008C14.875 5.48592 14.875 4.22885 14.0451 3.44779C13.2153 2.66675 11.8796 2.66675 9.20833 2.66675H7.79167C5.12037 2.66675 3.78473 2.66675 2.95486 3.44779C2.125 4.22885 2.125 5.48592 2.125 8.00008V9.33341C2.125 11.8475 2.125 13.1047 2.95486 13.8857C3.78473 14.6667 5.12037 14.6667 7.79167 14.6667" stroke="#8D8D8D" stroke-linecap="round" stroke-linejoin="round"/>
<path d="M2.125 6.66675H14.875" stroke="#8D8D8D" stroke-linecap="round" stroke-linejoin="round"/>
<path d="M12.5263 12.6036C11.6792 12.6036 10.9925 11.9501 10.9925 11.144C10.9925 10.3378 11.6792 9.68433 12.5263 9.68433C13.3734 9.68433 14.0601 10.3378 14.0601 11.144C14.0601 11.9501 13.3734 12.6036 12.5263 12.6036ZM12.5263 12.6036C14.0088 12.6036 15.2105 13.7473 15.2105 15.158M12.5263 12.6036C11.0439 12.6036 9.8421 13.7473 9.8421 15.158" stroke="#8D8D8D" stroke-linecap="round" stroke-linejoin="round"/>
</svg>
