<svg width="20" height="20" viewBox="0 0 20 20" fill="none" xmlns="http://www.w3.org/2000/svg">
<g opacity="0.7">
<path d="M13.3334 1.66675V5.00008M6.66669 1.66675V5.00008" stroke="white" stroke-width="1.75" stroke-linecap="round" stroke-linejoin="round"/>
<path d="M17.5 10.8333V9.99992C17.5 6.85722 17.5 5.28588 16.5237 4.30956C15.5474 3.33325 13.976 3.33325 10.8333 3.33325H9.16667C6.02397 3.33325 4.45262 3.33325 3.47631 4.30956C2.5 5.28588 2.5 6.85722 2.5 9.99992V11.6666C2.5 14.8093 2.5 16.3807 3.47631 17.3569C4.45262 18.3333 6.02397 18.3333 9.16667 18.3333" stroke="white" stroke-width="1.75" stroke-linecap="round" stroke-linejoin="round"/>
<path d="M2.5 8.33325H17.5" stroke="white" stroke-width="1.75" stroke-linecap="round" stroke-linejoin="round"/>
<path d="M10.8333 16.2499C10.8333 16.2499 11.9571 16.6722 12.5 18.3333C12.5 18.3333 15.1471 14.1666 17.5 13.3333" stroke="white" stroke-width="1.75" stroke-linecap="round" stroke-linejoin="round"/>
</g>
</svg>
