<svg width="17" height="16" viewBox="0 0 17 16" fill="none" xmlns="http://www.w3.org/2000/svg">
<path d="M11.3334 1.33337V4.00004M5.66669 1.33337V4.00004" stroke="#8D8D8D" stroke-linecap="round" stroke-linejoin="round"/>
<path d="M14.875 8.66663V7.99996C14.875 5.4858 14.875 4.22873 14.0451 3.44767C13.2153 2.66663 11.8796 2.66663 9.20833 2.66663H7.79167C5.12037 2.66663 3.78473 2.66663 2.95486 3.44767C2.125 4.22873 2.125 5.4858 2.125 7.99996V9.33329C2.125 11.8474 2.125 13.1046 2.95486 13.8856C3.78473 14.6666 5.12037 14.6666 7.79167 14.6666H8.5" stroke="#8D8D8D" stroke-linecap="round" stroke-linejoin="round"/>
<path d="M2.125 6.66663H14.875" stroke="#8D8D8D" stroke-linecap="round" stroke-linejoin="round"/>
<path d="M14.875 10.6666L12.75 12.6666M12.75 12.6666L10.625 14.6666M12.75 12.6666L14.875 14.6666M12.75 12.6666L10.625 10.6666" stroke="#8D8D8D" stroke-linecap="round" stroke-linejoin="round"/>
</svg>
