<svg width="30" height="30" viewBox="0 0 30 30" fill="none" xmlns="http://www.w3.org/2000/svg">
<rect width="30" height="30" rx="5" fill="#F2F2F2"/>
<g clip-path="url(#clip0_2027_3110)">
<path d="M19.1667 6.6665H10.8333C8.53215 6.6665 6.66667 8.53198 6.66667 10.8332V19.1665C6.66667 21.4677 8.53215 23.3332 10.8333 23.3332H19.1667C21.4679 23.3332 23.3333 21.4677 23.3333 19.1665V10.8332C23.3333 8.53198 21.4679 6.6665 19.1667 6.6665Z" stroke="#2F2F2F" stroke-width="1.8" stroke-linecap="round" stroke-linejoin="round"/>
<path d="M18.3333 14.4748C18.4362 15.1683 18.3177 15.8766 17.9948 16.4989C17.6719 17.1213 17.161 17.6259 16.5347 17.9412C15.9084 18.2564 15.1987 18.3661 14.5065 18.2547C13.8143 18.1433 13.1748 17.8165 12.679 17.3207C12.1833 16.825 11.8564 16.1855 11.7451 15.4933C11.6337 14.8011 11.7434 14.0913 12.0586 13.4651C12.3738 12.8388 12.8785 12.3279 13.5008 12.005C14.1231 11.682 14.8315 11.5636 15.525 11.6664C16.2324 11.7713 16.8874 12.101 17.3931 12.6067C17.8988 13.1124 18.2284 13.7673 18.3333 14.4748Z" stroke="#2F2F2F" stroke-width="1.8" stroke-linecap="round" stroke-linejoin="round"/>
<path d="M19.5833 10.4165H19.5917" stroke="#2F2F2F" stroke-width="1.8" stroke-linecap="round" stroke-linejoin="round"/>
</g>
<defs>
<clipPath id="clip0_2027_3110">
<rect width="20" height="20" fill="white" transform="translate(5 5)"/>
</clipPath>
</defs>
</svg>
