<svg width="263" height="97" viewBox="0 0 263 97" fill="none" xmlns="http://www.w3.org/2000/svg">
<rect width="263" height="97" rx="10" fill="#5E5E5E"/>
<path d="M41.1875 39.1562V33.4062C41.1875 28.6805 41.1875 26.3176 39.8822 24.7272C39.6434 24.4361 39.3764 24.1691 39.0853 23.9302C37.4949 22.625 35.132 22.625 30.4062 22.625C25.6805 22.625 23.3176 22.625 21.7272 23.9302C21.4361 24.1691 21.1691 24.4361 20.9302 24.7272C19.625 26.3176 19.625 28.6805 19.625 33.4062V39.1562C19.625 43.8819 19.625 46.2449 20.9302 47.8353C21.1691 48.1265 21.4361 48.3933 21.7272 48.6322C23.3176 49.9375 25.6805 49.9375 30.4062 49.9375C35.132 49.9375 37.4949 49.9375 39.0853 48.6322C39.3764 48.3933 39.6434 48.1265 39.8822 47.8353C41.1875 46.2449 41.1875 43.8819 41.1875 39.1562Z" fill="#E9E9E9" stroke="#E9E9E9" stroke-width="3" stroke-linejoin="round"/>
<path d="M33.2812 58.5625H27.5312C25.5251 58.5625 24.5221 58.5625 23.7059 58.81C21.8682 59.3675 20.4301 60.8056 19.8726 62.6433C19.625 63.4595 19.625 64.4626 19.625 66.4687C19.625 68.4749 19.625 69.478 19.8726 70.2942C20.4301 72.1319 21.8682 73.57 23.7059 74.1275C24.5221 74.375 25.5251 74.375 27.5312 74.375H33.2812C35.2874 74.375 36.2904 74.375 37.1066 74.1275C38.9443 73.57 40.3825 72.1319 40.94 70.2942C41.1875 69.478 41.1875 68.4749 41.1875 66.4687C41.1875 64.4626 41.1875 63.4595 40.94 62.6433C40.3825 60.8056 38.9443 59.3675 37.1066 58.81C36.2904 58.5625 35.2874 58.5625 33.2812 58.5625Z" fill="#E9E9E9" stroke="#E9E9E9" stroke-width="3" stroke-linejoin="round"/>
<path d="M71.375 63.5938V57.8438C71.375 53.1181 71.375 50.7552 70.0697 49.1647C69.8308 48.8735 69.564 48.6067 69.2728 48.3678C67.6824 47.0625 65.3194 47.0625 60.5938 47.0625C55.8681 47.0625 53.5052 47.0625 51.9147 48.3678C51.6235 48.6067 51.3567 48.8735 51.1178 49.1647C49.8125 50.7552 49.8125 53.1181 49.8125 57.8438V63.5938C49.8125 68.3194 49.8125 70.6824 51.1178 72.2728C51.3567 72.564 51.6235 72.8308 51.9147 73.0697C53.5052 74.375 55.8681 74.375 60.5938 74.375C65.3194 74.375 67.6824 74.375 69.2728 73.0697C69.564 72.8308 69.8308 72.564 70.0697 72.2728C71.375 70.6824 71.375 68.3194 71.375 63.5938Z" fill="#E9E9E9" stroke="#E9E9E9" stroke-width="3" stroke-linejoin="round"/>
<path d="M63.4688 22.625H57.7188C55.7126 22.625 54.7095 22.625 53.8933 22.8726C52.0556 23.4301 50.6175 24.8682 50.06 26.7059C49.8125 27.5221 49.8125 28.5251 49.8125 30.5312C49.8125 32.5374 49.8125 33.5404 50.06 34.3566C50.6175 36.1943 52.0556 37.6324 53.8933 38.1899C54.7095 38.4375 55.7126 38.4375 57.7188 38.4375H63.4688C65.4749 38.4375 66.478 38.4375 67.2942 38.1899C69.1319 37.6324 70.57 36.1943 71.1275 34.3566C71.375 33.5404 71.375 32.5374 71.375 30.5312C71.375 28.5251 71.375 27.5221 71.1275 26.7059C70.57 24.8682 69.1319 23.4301 67.2942 22.8726C66.478 22.625 65.4749 22.625 63.4688 22.625Z" fill="#E9E9E9" stroke="#E9E9E9" stroke-width="3" stroke-linejoin="round"/>
<path d="M87.326 40.322C86.8753 39.7673 86.65 39.2733 86.65 38.84C86.65 38.3893 87.0227 37.8 87.768 37.072C88.2013 36.656 88.6607 36.448 89.146 36.448C89.6313 36.448 90.3073 36.8813 91.174 37.748C91.4167 38.0427 91.7633 38.3287 92.214 38.606C92.6647 38.866 93.0807 38.996 93.462 38.996C95.074 38.996 95.88 38.3373 95.88 37.02C95.88 36.6213 95.6547 36.292 95.204 36.032C94.7707 35.7547 94.2247 35.5553 93.566 35.434C92.9073 35.3127 92.1967 35.122 91.434 34.862C90.6713 34.5847 89.9607 34.264 89.302 33.9C88.6433 33.536 88.0887 32.964 87.638 32.184C87.2047 31.3867 86.988 30.4333 86.988 29.324C86.988 27.7987 87.5513 26.4727 88.678 25.346C89.822 24.202 91.3733 23.63 93.332 23.63C94.372 23.63 95.3167 23.7687 96.166 24.046C97.0327 24.306 97.6307 24.5747 97.96 24.852L98.61 25.346C99.1473 25.8487 99.416 26.2733 99.416 26.62C99.416 26.9667 99.208 27.4433 98.792 28.05C98.2027 28.9167 97.596 29.35 96.972 29.35C96.608 29.35 96.1573 29.1767 95.62 28.83C95.568 28.7953 95.464 28.7087 95.308 28.57C95.1693 28.4313 95.0393 28.3187 94.918 28.232C94.554 28.0067 94.086 27.894 93.514 27.894C92.9593 27.894 92.4913 28.0327 92.11 28.31C91.746 28.57 91.564 28.9427 91.564 29.428C91.564 29.896 91.7807 30.2773 92.214 30.572C92.6647 30.8667 93.2193 31.066 93.878 31.17C94.5367 31.274 95.256 31.4387 96.036 31.664C96.816 31.872 97.5353 32.132 98.194 32.444C98.8527 32.756 99.3987 33.302 99.832 34.082C100.283 34.8447 100.508 35.7893 100.508 36.916C100.508 38.0427 100.283 39.0393 99.832 39.906C99.3813 40.7553 98.792 41.414 98.064 41.882C96.66 42.8007 95.1607 43.26 93.566 43.26C92.7513 43.26 91.98 43.1647 91.252 42.974C90.524 42.766 89.9347 42.5147 89.484 42.22C88.5653 41.6653 87.924 41.128 87.56 40.608L87.326 40.322ZM106.488 36.162C106.488 36.89 106.731 37.462 107.216 37.878C107.702 38.2767 108.213 38.476 108.75 38.476C109.305 38.476 109.816 38.32 110.284 38.008C110.77 37.6787 111.16 37.514 111.454 37.514C111.974 37.514 112.607 37.9733 113.352 38.892C113.751 39.3947 113.95 39.8453 113.95 40.244C113.95 40.9027 113.474 41.518 112.52 42.09C111.532 42.7833 110.319 43.13 108.88 43.13C107.268 43.13 105.717 42.5493 104.226 41.388C103.516 40.8333 102.935 40.0967 102.484 39.178C102.034 38.242 101.808 37.2193 101.808 36.11C101.808 34.9833 102.034 33.9693 102.484 33.068C102.935 32.1493 103.516 31.4127 104.226 30.858C105.665 29.714 107.199 29.142 108.828 29.142C109.487 29.142 110.128 29.2373 110.752 29.428C111.376 29.6013 111.836 29.7747 112.13 29.948L112.546 30.208C112.858 30.416 113.101 30.5807 113.274 30.702C113.725 31.0487 113.95 31.4473 113.95 31.898C113.95 32.3313 113.768 32.8253 113.404 33.38C112.78 34.3333 112.182 34.81 111.61 34.81C111.281 34.81 110.813 34.6193 110.206 34.238C109.894 33.9433 109.444 33.796 108.854 33.796C108.282 33.796 107.745 34.004 107.242 34.42C106.74 34.836 106.488 35.4167 106.488 36.162ZM115.24 36.162C115.24 34.082 115.968 32.366 117.424 31.014C118.88 29.662 120.544 28.986 122.416 28.986C124.288 28.986 125.943 29.662 127.382 31.014C128.821 32.3487 129.54 34.056 129.54 36.136C129.54 37.5747 129.167 38.8573 128.422 39.984C127.677 41.0933 126.767 41.9167 125.692 42.454C124.635 42.974 123.534 43.234 122.39 43.234C121.246 43.234 120.137 42.9567 119.062 42.402C117.987 41.83 117.077 40.998 116.332 39.906C115.604 38.7967 115.24 37.5487 115.24 36.162ZM120.674 38.034C121.229 38.45 121.792 38.658 122.364 38.658C122.936 38.658 123.508 38.4413 124.08 38.008C124.652 37.5747 124.938 36.9333 124.938 36.084C124.938 35.2347 124.669 34.602 124.132 34.186C123.595 33.77 123.014 33.562 122.39 33.562C121.766 33.562 121.185 33.7787 120.648 34.212C120.111 34.6453 119.842 35.2867 119.842 36.136C119.842 36.968 120.119 37.6007 120.674 38.034ZM137.304 42.948C135.553 42.948 134.097 42.2893 132.936 40.972C131.792 39.6373 131.22 38.0167 131.22 36.11V31.56C131.22 31.144 131.228 30.8407 131.246 30.65C131.28 30.4593 131.358 30.234 131.48 29.974C131.722 29.506 132.398 29.272 133.508 29.272C134.721 29.272 135.432 29.6013 135.64 30.26C135.744 30.5373 135.796 30.9793 135.796 31.586V36.136C135.796 36.8467 135.995 37.4013 136.394 37.8C136.81 38.1987 137.356 38.398 138.032 38.398C138.725 38.398 139.28 38.19 139.696 37.774C140.129 37.358 140.346 36.812 140.346 36.136V31.534C140.346 31.1353 140.354 30.8407 140.372 30.65C140.406 30.442 140.493 30.208 140.632 29.948C140.857 29.4973 141.524 29.272 142.634 29.272C143.726 29.272 144.393 29.506 144.636 29.974C144.757 30.234 144.826 30.468 144.844 30.676C144.878 30.8667 144.896 31.1613 144.896 31.56V40.764C144.896 41.1453 144.878 41.44 144.844 41.648C144.826 41.8387 144.748 42.0553 144.61 42.298C144.35 42.7487 143.682 42.974 142.608 42.974C141.55 42.974 140.9 42.766 140.658 42.35C140.484 42.0553 140.398 41.7 140.398 41.284C140.328 41.4053 140.172 41.5787 139.93 41.804C139.687 42.0293 139.453 42.22 139.228 42.376C138.638 42.7573 137.997 42.948 137.304 42.948ZM154.943 33.9L153.253 33.796V37.384C153.253 37.852 153.323 38.19 153.461 38.398C153.617 38.606 153.895 38.71 154.293 38.71C154.709 38.71 155.021 38.7273 155.229 38.762C155.455 38.7793 155.689 38.8573 155.931 38.996C156.33 39.2213 156.529 39.802 156.529 40.738C156.529 41.83 156.287 42.4973 155.801 42.74C155.541 42.8613 155.307 42.9393 155.099 42.974C154.909 42.9913 154.623 43 154.241 43C152.439 43 151.069 42.5927 150.133 41.778C149.197 40.9633 148.729 39.5853 148.729 37.644V33.796C148.4 33.848 148.045 33.874 147.663 33.874C147.282 33.874 146.961 33.7267 146.701 33.432C146.459 33.1373 146.337 32.6347 146.337 31.924C146.337 31.2133 146.381 30.702 146.467 30.39C146.554 30.0607 146.675 29.8267 146.831 29.688C147.109 29.4627 147.455 29.35 147.871 29.35L148.729 29.454V26.776C148.729 26.3773 148.738 26.0827 148.755 25.892C148.79 25.7013 148.877 25.4933 149.015 25.268C149.241 24.8347 149.908 24.618 151.017 24.618C152.196 24.618 152.898 24.9387 153.123 25.58C153.21 25.8573 153.253 26.2993 153.253 26.906V29.454C154.016 29.3847 154.588 29.35 154.969 29.35C155.368 29.35 155.663 29.3673 155.853 29.402C156.061 29.4193 156.295 29.4973 156.555 29.636C157.006 29.8613 157.231 30.5287 157.231 31.638C157.231 32.73 156.997 33.3973 156.529 33.64C156.269 33.7613 156.035 33.8393 155.827 33.874C155.637 33.8913 155.342 33.9 154.943 33.9ZM107.294 55.67C107.433 55.93 107.511 56.164 107.528 56.372C107.563 56.58 107.58 56.8833 107.58 57.282V71.712C107.58 72.908 107.251 73.61 106.592 73.818C106.263 73.922 105.847 73.974 105.344 73.974C104.841 73.974 104.443 73.9307 104.148 73.844C103.853 73.7573 103.628 73.6533 103.472 73.532C103.316 73.4107 103.195 73.2373 103.108 73.012C103.021 72.7173 102.978 72.2667 102.978 71.66V62.95C102.545 63.4873 101.912 64.3453 101.08 65.524C100.248 66.6853 99.7193 67.4133 99.494 67.708C99.2687 68.0027 99.1127 68.2107 99.026 68.332C98.9393 68.436 98.7227 68.592 98.376 68.8C98.0467 68.9907 97.6827 69.086 97.284 69.086C96.9027 69.086 96.5473 68.9993 96.218 68.826C95.906 68.6353 95.6807 68.4533 95.542 68.28L95.334 67.994C94.9873 67.5607 94.3027 66.642 93.28 65.238C92.2573 63.8167 91.7027 63.054 91.616 62.95V71.712C91.616 72.1107 91.5987 72.414 91.564 72.622C91.5467 72.8127 91.4687 73.0293 91.33 73.272C91.07 73.74 90.394 73.974 89.302 73.974C88.2447 73.974 87.586 73.74 87.326 73.272C87.1873 73.0293 87.1007 72.804 87.066 72.596C87.0487 72.388 87.04 72.076 87.04 71.66V57.23C87.04 56.8313 87.0487 56.5367 87.066 56.346C87.1007 56.138 87.1873 55.904 87.326 55.644C87.586 55.1933 88.262 54.968 89.354 54.968C89.822 54.968 90.2207 55.0287 90.55 55.15C90.8967 55.254 91.122 55.3667 91.226 55.488L91.382 55.644L97.284 63.392C100.231 59.492 102.198 56.918 103.186 55.67C103.481 55.202 104.174 54.968 105.266 54.968C106.375 54.968 107.051 55.202 107.294 55.67ZM118.555 61.754C118.659 60.7833 119.344 60.298 120.609 60.298C121.285 60.298 121.788 60.35 122.117 60.454C122.446 60.558 122.672 60.74 122.793 61C122.932 61.26 123.01 61.494 123.027 61.702C123.062 61.8927 123.079 62.1873 123.079 62.586V71.686C123.079 72.0847 123.062 72.388 123.027 72.596C123.01 72.7867 122.94 73.012 122.819 73.272C122.576 73.7227 121.978 73.948 121.025 73.948C120.089 73.948 119.456 73.8353 119.127 73.61C118.815 73.3673 118.633 73.0207 118.581 72.57C117.94 73.4887 116.865 73.948 115.357 73.948C113.866 73.948 112.48 73.2633 111.197 71.894C109.914 70.5247 109.273 68.9387 109.273 67.136C109.273 65.316 109.914 63.73 111.197 62.378C112.497 61.0087 113.918 60.324 115.461 60.324C116.05 60.324 116.588 60.428 117.073 60.636C117.558 60.844 117.896 61.0433 118.087 61.234C118.278 61.4073 118.434 61.5807 118.555 61.754ZM113.823 67.162C113.823 67.734 114.048 68.254 114.499 68.722C114.95 69.1727 115.496 69.398 116.137 69.398C116.778 69.398 117.307 69.164 117.723 68.696C118.156 68.228 118.373 67.7167 118.373 67.162C118.373 66.59 118.165 66.0613 117.749 65.576C117.35 65.0907 116.804 64.848 116.111 64.848C115.435 64.848 114.88 65.0907 114.447 65.576C114.031 66.0613 113.823 66.59 113.823 67.162ZM132.769 60.298C134.503 60.298 135.941 60.9653 137.085 62.3C138.247 63.6173 138.827 65.2293 138.827 67.136V71.712C138.827 72.1107 138.81 72.414 138.775 72.622C138.758 72.8127 138.689 73.0293 138.567 73.272C138.325 73.74 137.649 73.974 136.539 73.974C135.309 73.974 134.598 73.6533 134.407 73.012C134.303 72.7173 134.251 72.2753 134.251 71.686V67.11C134.251 66.3993 134.043 65.8447 133.627 65.446C133.229 65.0473 132.683 64.848 131.989 64.848C131.313 64.848 130.759 65.056 130.325 65.472C129.909 65.888 129.701 66.434 129.701 67.11V71.712C129.701 72.1107 129.684 72.414 129.649 72.622C129.632 72.8127 129.554 73.0293 129.415 73.272C129.19 73.74 128.523 73.974 127.413 73.974C126.321 73.974 125.654 73.74 125.411 73.272C125.29 73.012 125.212 72.7867 125.177 72.596C125.16 72.388 125.151 72.0847 125.151 71.686V62.482C125.151 62.1007 125.16 61.8147 125.177 61.624C125.212 61.416 125.299 61.1907 125.437 60.948C125.68 60.5147 126.347 60.298 127.439 60.298C128.497 60.298 129.147 60.4973 129.389 60.896C129.563 61.1907 129.649 61.546 129.649 61.962C129.719 61.8407 129.875 61.6673 130.117 61.442C130.36 61.2167 130.594 61.0347 130.819 60.896C131.409 60.4973 132.059 60.298 132.769 60.298ZM149.811 61.754C149.915 60.7833 150.6 60.298 151.865 60.298C152.541 60.298 153.044 60.35 153.373 60.454C153.702 60.558 153.928 60.74 154.049 61C154.188 61.26 154.266 61.494 154.283 61.702C154.318 61.8927 154.335 62.1873 154.335 62.586V71.686C154.335 72.0847 154.318 72.388 154.283 72.596C154.266 72.7867 154.196 73.012 154.075 73.272C153.832 73.7227 153.234 73.948 152.281 73.948C151.345 73.948 150.712 73.8353 150.383 73.61C150.071 73.3673 149.889 73.0207 149.837 72.57C149.196 73.4887 148.121 73.948 146.613 73.948C145.122 73.948 143.736 73.2633 142.453 71.894C141.17 70.5247 140.529 68.9387 140.529 67.136C140.529 65.316 141.17 63.73 142.453 62.378C143.753 61.0087 145.174 60.324 146.717 60.324C147.306 60.324 147.844 60.428 148.329 60.636C148.814 60.844 149.152 61.0433 149.343 61.234C149.534 61.4073 149.69 61.5807 149.811 61.754ZM145.079 67.162C145.079 67.734 145.304 68.254 145.755 68.722C146.206 69.1727 146.752 69.398 147.393 69.398C148.034 69.398 148.563 69.164 148.979 68.696C149.412 68.228 149.629 67.7167 149.629 67.162C149.629 66.59 149.421 66.0613 149.005 65.576C148.606 65.0907 148.06 64.848 147.367 64.848C146.691 64.848 146.136 65.0907 145.703 65.576C145.287 66.0613 145.079 66.59 145.079 67.162ZM165.091 72.284C164.433 73.1507 163.384 73.584 161.945 73.584C160.507 73.584 159.155 72.9253 157.889 71.608C156.641 70.2733 156.017 68.722 156.017 66.954C156.017 65.186 156.65 63.6347 157.915 62.3C159.181 60.9653 160.567 60.298 162.075 60.298C162.665 60.298 163.202 60.4107 163.687 60.636C164.173 60.844 164.502 61.0433 164.675 61.234C164.866 61.4073 165.013 61.572 165.117 61.728C165.169 61.2427 165.343 60.8787 165.637 60.636C165.949 60.376 166.443 60.246 167.119 60.246C167.795 60.246 168.289 60.298 168.601 60.402C168.913 60.506 169.13 60.688 169.251 60.948C169.39 61.1907 169.468 61.4073 169.485 61.598C169.52 61.7887 169.537 62.0833 169.537 62.482V73.246C169.537 75.2393 168.844 76.8427 167.457 78.056C166.071 79.2867 164.511 79.902 162.777 79.902C161.46 79.902 160.203 79.5813 159.007 78.94C157.811 78.2987 157.213 77.718 157.213 77.198C157.213 76.522 157.473 75.924 157.993 75.404C158.323 75.04 158.574 74.7887 158.747 74.65C158.938 74.5113 159.155 74.442 159.397 74.442C159.64 74.442 159.891 74.546 160.151 74.754C160.983 75.3953 161.885 75.716 162.855 75.716C163.514 75.716 164.051 75.456 164.467 74.936C164.883 74.416 165.091 73.792 165.091 73.064V72.284ZM160.463 66.98C160.463 67.5347 160.68 68.0373 161.113 68.488C161.564 68.9387 162.101 69.164 162.725 69.164C163.367 69.164 163.895 68.9387 164.311 68.488C164.727 68.02 164.935 67.5173 164.935 66.98C164.935 66.4253 164.736 65.914 164.337 65.446C163.939 64.9607 163.401 64.718 162.725 64.718C162.049 64.718 161.503 64.952 161.087 65.42C160.671 65.888 160.463 66.408 160.463 66.98ZM184.824 65.524C184.824 66.5813 184.556 67.37 184.018 67.89C183.498 68.3927 182.918 68.644 182.276 68.644H176.114C176.114 69.1293 176.4 69.5367 176.972 69.866C177.544 70.1953 178.116 70.36 178.688 70.36C179.694 70.36 180.482 70.256 181.054 70.048L181.34 69.944C181.756 69.7533 182.103 69.658 182.38 69.658C182.935 69.658 183.412 70.048 183.81 70.828C184.036 71.296 184.148 71.6947 184.148 72.024C184.148 73.5667 182.302 74.338 178.61 74.338C177.328 74.338 176.184 74.1213 175.178 73.688C174.19 73.2373 173.419 72.648 172.864 71.92C171.772 70.516 171.226 68.9473 171.226 67.214C171.226 65.03 171.928 63.288 173.332 61.988C174.754 60.6707 176.522 60.012 178.636 60.012C181.046 60.012 182.814 60.8613 183.94 62.56C184.53 63.4613 184.824 64.4493 184.824 65.524ZM179.338 66.278C179.997 66.278 180.326 66.0007 180.326 65.446C180.326 65.0473 180.17 64.7267 179.858 64.484C179.564 64.2413 179.13 64.12 178.558 64.12C178.004 64.12 177.449 64.354 176.894 64.822C176.34 65.2727 176.062 65.758 176.062 66.278H179.338ZM190.992 62.118C191.807 60.8873 192.786 60.272 193.93 60.272C195.698 60.272 197.016 61.026 197.882 62.534C198.073 62.274 198.298 62.0053 198.558 61.728C198.836 61.4333 199.269 61.1213 199.858 60.792C200.448 60.4453 201.054 60.272 201.678 60.272C203.065 60.272 204.226 60.8093 205.162 61.884C206.098 62.9413 206.566 64.7007 206.566 67.162V71.712C206.566 72.1107 206.549 72.414 206.514 72.622C206.497 72.8127 206.419 73.038 206.28 73.298C206.055 73.766 205.388 74 204.278 74C203.186 74 202.519 73.7573 202.276 73.272C202.155 73.012 202.077 72.7867 202.042 72.596C202.025 72.388 202.016 72.0847 202.016 71.686V67.136C202.016 65.628 201.479 64.874 200.404 64.874C199.798 64.874 199.382 65.0733 199.156 65.472C198.948 65.8707 198.844 66.434 198.844 67.162V71.712C198.844 72.128 198.827 72.4313 198.792 72.622C198.775 72.8127 198.697 73.038 198.558 73.298C198.316 73.766 197.64 74 196.53 74C195.438 74 194.771 73.7573 194.528 73.272C194.407 73.012 194.329 72.7867 194.294 72.596C194.277 72.388 194.268 72.0847 194.268 71.686V67.136C194.268 65.628 193.731 64.874 192.656 64.874C191.616 64.874 191.096 65.628 191.096 67.136V71.738C191.096 72.1367 191.079 72.44 191.044 72.648C191.027 72.8387 190.949 73.064 190.81 73.324C190.55 73.7747 189.874 74 188.782 74C187.69 74 187.023 73.766 186.78 73.298C186.659 73.038 186.581 72.8127 186.546 72.622C186.529 72.4313 186.52 72.128 186.52 71.712V62.56C186.52 62.1613 186.529 61.8667 186.546 61.676C186.581 61.468 186.668 61.2427 186.806 61C187.066 60.532 187.682 60.298 188.652 60.298C189.623 60.298 190.256 60.454 190.55 60.766C190.845 61.078 190.992 61.5287 190.992 62.118ZM221.844 65.524C221.844 66.5813 221.575 67.37 221.038 67.89C220.518 68.3927 219.937 68.644 219.296 68.644H213.134C213.134 69.1293 213.42 69.5367 213.992 69.866C214.564 70.1953 215.136 70.36 215.708 70.36C216.713 70.36 217.502 70.256 218.074 70.048L218.36 69.944C218.776 69.7533 219.122 69.658 219.4 69.658C219.954 69.658 220.431 70.048 220.83 70.828C221.055 71.296 221.168 71.6947 221.168 72.024C221.168 73.5667 219.322 74.338 215.63 74.338C214.347 74.338 213.203 74.1213 212.198 73.688C211.21 73.2373 210.438 72.648 209.884 71.92C208.792 70.516 208.246 68.9473 208.246 67.214C208.246 65.03 208.948 63.288 210.352 61.988C211.773 60.6707 213.541 60.012 215.656 60.012C218.065 60.012 219.833 60.8613 220.96 62.56C221.549 63.4613 221.844 64.4493 221.844 65.524ZM216.358 66.278C217.016 66.278 217.346 66.0007 217.346 65.446C217.346 65.0473 217.19 64.7267 216.878 64.484C216.583 64.2413 216.15 64.12 215.578 64.12C215.023 64.12 214.468 64.354 213.914 64.822C213.359 65.2727 213.082 65.758 213.082 66.278H216.358ZM231.158 60.298C232.891 60.298 234.33 60.9653 235.474 62.3C236.635 63.6173 237.216 65.2293 237.216 67.136V71.712C237.216 72.1107 237.199 72.414 237.164 72.622C237.147 72.8127 237.077 73.0293 236.956 73.272C236.713 73.74 236.037 73.974 234.928 73.974C233.697 73.974 232.987 73.6533 232.796 73.012C232.692 72.7173 232.64 72.2753 232.64 71.686V67.11C232.64 66.3993 232.432 65.8447 232.016 65.446C231.617 65.0473 231.071 64.848 230.378 64.848C229.702 64.848 229.147 65.056 228.714 65.472C228.298 65.888 228.09 66.434 228.09 67.11V71.712C228.09 72.1107 228.073 72.414 228.038 72.622C228.021 72.8127 227.943 73.0293 227.804 73.272C227.579 73.74 226.911 73.974 225.802 73.974C224.71 73.974 224.043 73.74 223.8 73.272C223.679 73.012 223.601 72.7867 223.566 72.596C223.549 72.388 223.54 72.0847 223.54 71.686V62.482C223.54 62.1007 223.549 61.8147 223.566 61.624C223.601 61.416 223.687 61.1907 223.826 60.948C224.069 60.5147 224.736 60.298 225.828 60.298C226.885 60.298 227.535 60.4973 227.778 60.896C227.951 61.1907 228.038 61.546 228.038 61.962C228.107 61.8407 228.263 61.6673 228.506 61.442C228.749 61.2167 228.983 61.0347 229.208 60.896C229.797 60.4973 230.447 60.298 231.158 60.298ZM247.01 64.9L245.32 64.796V68.384C245.32 68.852 245.389 69.19 245.528 69.398C245.684 69.606 245.961 69.71 246.36 69.71C246.776 69.71 247.088 69.7273 247.296 69.762C247.521 69.7793 247.755 69.8573 247.998 69.996C248.396 70.2213 248.596 70.802 248.596 71.738C248.596 72.83 248.353 73.4973 247.868 73.74C247.608 73.8613 247.374 73.9393 247.166 73.974C246.975 73.9913 246.689 74 246.308 74C244.505 74 243.136 73.5927 242.2 72.778C241.264 71.9633 240.796 70.5853 240.796 68.644V64.796C240.466 64.848 240.111 64.874 239.73 64.874C239.348 64.874 239.028 64.7267 238.768 64.432C238.525 64.1373 238.404 63.6347 238.404 62.924C238.404 62.2133 238.447 61.702 238.534 61.39C238.62 61.0607 238.742 60.8267 238.898 60.688C239.175 60.4627 239.522 60.35 239.938 60.35L240.796 60.454V57.776C240.796 57.3773 240.804 57.0827 240.822 56.892C240.856 56.7013 240.943 56.4933 241.082 56.268C241.307 55.8347 241.974 55.618 243.084 55.618C244.262 55.618 244.964 55.9387 245.19 56.58C245.276 56.8573 245.32 57.2993 245.32 57.906V60.454C246.082 60.3847 246.654 60.35 247.036 60.35C247.434 60.35 247.729 60.3673 247.92 60.402C248.128 60.4193 248.362 60.4973 248.622 60.636C249.072 60.8613 249.298 61.5287 249.298 62.638C249.298 63.73 249.064 64.3973 248.596 64.64C248.336 64.7613 248.102 64.8393 247.894 64.874C247.703 64.8913 247.408 64.9 247.01 64.9Z" fill="#F1F1F1"/>
</svg>
