<svg width="16" height="16" viewBox="0 0 16 16" fill="none" xmlns="http://www.w3.org/2000/svg">
<path fill-rule="evenodd" clip-rule="evenodd" d="M9.9651 11.026C8.94983 11.7739 7.68944 12.1106 6.43643 11.9686C5.18343 11.8266 4.03036 11.2163 3.20823 10.2601C2.3861 9.30397 1.95563 8.07245 2.00305 6.81232C2.05048 5.55219 2.5723 4.35651 3.46398 3.46484C4.35566 2.57316 5.55133 2.05133 6.81147 2.00391C8.0716 1.95648 9.30312 2.38695 10.2593 3.20909C11.2155 4.03122 11.8257 5.18429 11.9677 6.43729C12.1097 7.69029 11.773 8.95068 11.0251 9.96595L13.7801 12.72C13.8538 12.7886 13.9129 12.8714 13.9539 12.9634C13.9949 13.0554 14.0169 13.1547 14.0187 13.2554C14.0205 13.3561 14.0019 13.4562 13.9642 13.5496C13.9265 13.6429 13.8704 13.7278 13.7991 13.799C13.7279 13.8702 13.6431 13.9264 13.5497 13.9641C13.4563 14.0018 13.3563 14.0203 13.2556 14.0185C13.1549 14.0168 13.0556 13.9947 12.9636 13.9537C12.8716 13.9127 12.7888 13.8536 12.7201 13.78L9.9651 11.026ZM10.5001 6.99995C10.5001 7.92821 10.1313 8.81845 9.47497 9.47483C8.81859 10.1312 7.92836 10.5 7.0001 10.5C6.07184 10.5 5.1816 10.1312 4.52522 9.47483C3.86885 8.81845 3.5001 7.92821 3.5001 6.99995C3.5001 6.07169 3.86885 5.18146 4.52522 4.52508C5.1816 3.8687 6.07184 3.49995 7.0001 3.49995C7.92836 3.49995 8.81859 3.8687 9.47497 4.52508C10.1313 5.18146 10.5001 6.07169 10.5001 6.99995Z" fill="#959595"/>
</svg>
