<svg width="17" height="16" viewBox="0 0 17 16" fill="none" xmlns="http://www.w3.org/2000/svg">
<path d="M14.6883 10.9942L14.9949 10.7057C15.2489 10.4666 15.6607 10.4666 15.9147 10.7057C16.1687 10.9447 16.1687 11.3323 15.9147 11.5714L15.6081 11.86M14.6883 10.9942L12.6257 12.9354C12.4686 13.0834 12.3571 13.2687 12.3031 13.4717L12.0789 14.3158L12.9758 14.1048C13.1915 14.0541 13.3884 13.9491 13.5456 13.8012L15.6081 11.86M14.6883 10.9942L15.6081 11.86" stroke="#8D8D8D" stroke-width="0.8" stroke-linejoin="round"/>
<path d="M15.6579 13.4078C15.6579 14.3594 15.6579 14.8352 15.3786 15.1555C15.3275 15.2141 15.2704 15.2679 15.2081 15.316C14.8678 15.5788 14.3622 15.5788 13.3511 15.5788H13.1974C12.0374 15.5788 11.4575 15.5788 11.0972 15.2397C10.7368 14.9006 10.7368 14.3547 10.7368 13.2631V13.1183C10.7368 12.1667 10.7368 11.6909 11.0161 11.3706C11.0672 11.312 11.1243 11.2582 11.1866 11.2101C11.5269 10.9473 12.0325 10.9473 13.0436 10.9473" stroke="#8D8D8D" stroke-width="0.8" stroke-linecap="round" stroke-linejoin="round"/>
<path d="M11.3334 1.33325V3.99992M5.66669 1.33325V3.99992" stroke="#8D8D8D" stroke-linecap="round" stroke-linejoin="round"/>
<path d="M14.875 9.33341V8.00008C14.875 5.48592 14.875 4.22885 14.0451 3.44779C13.2153 2.66675 11.8796 2.66675 9.20833 2.66675H7.79167C5.12037 2.66675 3.78473 2.66675 2.95486 3.44779C2.125 4.22885 2.125 5.48592 2.125 8.00008V9.33341C2.125 11.8475 2.125 13.1047 2.95486 13.8857C3.78473 14.6667 5.12037 14.6667 7.79167 14.6667H9.20833" stroke="#8D8D8D" stroke-linecap="round" stroke-linejoin="round"/>
<path d="M2.125 6.66675H14.875" stroke="#8D8D8D" stroke-linecap="round" stroke-linejoin="round"/>
</svg>
