<svg width="54" height="54" viewBox="0 0 54 54" fill="none" xmlns="http://www.w3.org/2000/svg">
<rect width="54" height="54" rx="10" fill="#DADADA"/>
<path d="M27 28C29.0886 28 31.0916 27.1703 32.5685 25.6935C34.0453 24.2166 34.875 22.2136 34.875 20.125C34.875 18.0364 34.0453 16.0334 32.5685 14.5565C31.0916 13.0797 29.0886 12.25 27 12.25C24.9114 12.25 22.9084 13.0797 21.4315 14.5565C19.9547 16.0334 19.125 18.0364 19.125 20.125C19.125 22.2136 19.9547 24.2166 21.4315 25.6935C22.9084 27.1703 24.9114 28 27 28ZM39.4294 43.75C41.0516 43.75 42.2985 42.2774 41.7184 40.7601C40.5804 37.7783 38.5636 35.2124 35.9351 33.4022C33.3066 31.5919 30.1903 30.6226 26.9987 30.6226C23.8071 30.6226 20.6908 31.5919 18.0622 33.4022C15.4337 35.2124 13.417 37.7783 12.279 40.7601C11.7015 42.2774 12.9457 43.75 14.568 43.75H39.4294Z" fill="#949494"/>
</svg>
