<svg width="15" height="15" viewBox="0 0 15 15" fill="none" xmlns="http://www.w3.org/2000/svg">
<path d="M7.98587 8.53117L8.48081 9.52923C8.54831 9.66817 8.72831 9.80142 8.88019 9.82692L9.77725 9.97723C10.3509 10.0736 10.4859 10.4933 10.0726 10.9072L9.37512 11.6104C9.257 11.7295 9.19231 11.9592 9.22887 12.1237L9.42856 12.9941C9.58606 13.6831 9.22325 13.9497 8.61862 13.5895L7.77781 13.0877C7.62594 12.997 7.37562 12.997 7.221 13.0877L6.38012 13.5895C5.77833 13.9497 5.41274 13.6803 5.57022 12.9941L5.76989 12.1237C5.80645 11.9592 5.74177 11.7295 5.62366 11.6104L4.92624 10.9072C4.51566 10.4933 4.64783 10.0736 5.22152 9.97723L6.11861 9.82692C6.26762 9.80142 6.44762 9.66817 6.51512 9.52923L7.01006 8.53117C7.28006 7.98961 7.71875 7.98961 7.98587 8.53117Z" stroke="#929292" stroke-width="1.5" stroke-linecap="round" stroke-linejoin="round"/>
<path d="M10.7868 1.25729H4.21322C3.70714 1.25729 3.0372 1.1589 2.6911 1.68501C2.5 1.9755 2.5 2.39583 2.5 3.23652C2.5 3.95327 2.5 4.31165 2.62886 4.61359C2.84893 5.12927 3.34098 5.35329 3.76273 5.5969L5.82295 6.78694C6.64587 7.26231 7.05738 7.5 7.5 7.5C7.94262 7.5 8.35413 7.26231 9.17706 6.78694L11.2373 5.5969C11.659 5.35329 12.1511 5.12927 12.3711 4.61359C12.5 4.31165 12.5 3.95327 12.5 3.23652C12.5 2.39583 12.5 1.9755 12.3089 1.68501C11.9628 1.1589 11.2929 1.25729 10.7868 1.25729Z" stroke="#929292" stroke-width="1.5"/>
<path d="M7.5 1.25V4.375" stroke="#929292" stroke-width="1.5" stroke-linecap="round"/>
</svg>
