<svg width="20" height="20" viewBox="0 0 20 20" fill="none" xmlns="http://www.w3.org/2000/svg">
<g clip-path="url(#clip0_16_647)">
<path d="M5.83334 13.3334H9.16668M5.83334 9.16675H12.5" stroke="#BCBCBC" stroke-width="1.75" stroke-linecap="round"/>
<path d="M5.41667 2.91675C4.12017 2.95564 3.34718 3.09995 2.81231 3.63531C2.08008 4.36822 2.08008 5.54783 2.08008 7.90705V13.3287C2.08008 15.688 2.08008 16.8676 2.81231 17.6005C3.54454 18.3334 4.72306 18.3334 7.08008 18.3334H9.58334M12.9102 2.91675C14.2067 2.95564 14.9797 3.09995 15.5145 3.63531C16.2468 4.36822 16.2468 5.54783 16.2468 7.90705V10.0001" stroke="#BCBCBC" stroke-width="1.75" stroke-linecap="round"/>
<path d="M5.41342 3.12508C5.41342 2.31966 6.06635 1.66675 6.87175 1.66675H11.4551C12.2605 1.66675 12.9134 2.31966 12.9134 3.12508C12.9134 3.9305 12.2605 4.58341 11.4551 4.58341H6.87175C6.06635 4.58341 5.41342 3.9305 5.41342 3.12508Z" stroke="#BCBCBC" stroke-width="1.75" stroke-linejoin="round"/>
<path d="M16.6667 13.9999C16.6667 14.9204 15.9205 15.6666 15 15.6666C14.0795 15.6666 13.3333 14.9204 13.3333 13.9999C13.3333 13.0794 14.0795 12.3333 15 12.3333C15.9205 12.3333 16.6667 13.0794 16.6667 13.9999Z" stroke="#BCBCBC" stroke-width="0.9"/>
<path d="M15.9524 17H14.0476C12.7326 17 11.6667 18.2792 11.6667 19.8571C11.6667 20.4883 12.0931 21 12.619 21H17.3809C17.9069 21 18.3333 20.4883 18.3333 19.8571C18.3333 18.2792 17.2673 17 15.9524 17Z" stroke="#BCBCBC" stroke-width="0.9" stroke-linejoin="round"/>
</g>
<defs>
<clipPath id="clip0_16_647">
<rect width="20" height="20" fill="white"/>
</clipPath>
</defs>
</svg>
