<svg width="20" height="20" viewBox="0 0 20 20" fill="none" xmlns="http://www.w3.org/2000/svg">
<g opacity="0.7">
<path d="M6.66504 13.3334H9.99833M6.66504 9.16675H13.3317" stroke="white" stroke-width="1.75" stroke-linecap="round"/>
<path d="M6.25001 2.91675C4.95351 2.95564 4.18052 3.09995 3.64566 3.63531C2.91342 4.36822 2.91342 5.54783 2.91342 7.90705V13.3287C2.91342 15.688 2.91342 16.8676 3.64566 17.6005C4.37789 18.3334 5.5564 18.3334 7.91342 18.3334H12.0801C14.4371 18.3334 15.6156 18.3334 16.3478 17.6005C17.0801 16.8676 17.0801 15.688 17.0801 13.3287V7.90705C17.0801 5.54783 17.0801 4.36822 16.3478 3.63531C15.813 3.09995 15.04 2.95564 13.7435 2.91675" stroke="white" stroke-width="1.75"/>
<path d="M6.24673 3.12508C6.24673 2.31966 6.89966 1.66675 7.70507 1.66675H12.2884C13.0938 1.66675 13.7467 2.31966 13.7467 3.12508C13.7467 3.9305 13.0938 4.58341 12.2884 4.58341H7.70507C6.89966 4.58341 6.24673 3.9305 6.24673 3.12508Z" stroke="white" stroke-width="1.75" stroke-linejoin="round"/>
</g>
</svg>
