<svg width="16" height="16" viewBox="0 0 16 16" fill="none" xmlns="http://www.w3.org/2000/svg">
<path fill-rule="evenodd" clip-rule="evenodd" d="M4.21983 6.22003C4.36045 6.07958 4.55108 6.00069 4.74983 6.00069C4.94858 6.00069 5.1392 6.07958 5.27983 6.22003L7.99983 8.94003L10.7198 6.22003C10.7885 6.14634 10.8713 6.08724 10.9633 6.04625C11.0553 6.00526 11.1546 5.98322 11.2553 5.98144C11.356 5.97966 11.456 5.99819 11.5494 6.03591C11.6428 6.07363 11.7276 6.12977 11.7989 6.20099C11.8701 6.27221 11.9262 6.35705 11.964 6.45043C12.0017 6.54382 12.0202 6.64385 12.0184 6.74455C12.0166 6.84526 11.9946 6.94457 11.9536 7.03657C11.9126 7.12857 11.8535 7.21137 11.7798 7.28003L8.52983 10.53C8.3892 10.6705 8.19858 10.7494 7.99983 10.7494C7.80108 10.7494 7.61045 10.6705 7.46983 10.53L4.21983 7.28003C4.07938 7.13941 4.00049 6.94878 4.00049 6.75003C4.00049 6.55128 4.07938 6.36066 4.21983 6.22003Z" fill="#8B8B8B"/>
</svg>
