<svg width="13" height="13" viewBox="0 0 13 13" fill="none" xmlns="http://www.w3.org/2000/svg">
<g clip-path="url(#clip0_106_1727)">
<path fill-rule="evenodd" clip-rule="evenodd" d="M12.1875 6.5C12.1875 8.00842 11.5883 9.45506 10.5217 10.5217C9.45506 11.5883 8.00842 12.1875 6.5 12.1875C4.99158 12.1875 3.54494 11.5883 2.47833 10.5217C1.41172 9.45506 0.8125 8.00842 0.8125 6.5C0.8125 4.99158 1.41172 3.54494 2.47833 2.47833C3.54494 1.41172 4.99158 0.8125 6.5 0.8125C8.00842 0.8125 9.45506 1.41172 10.5217 2.47833C11.5883 3.54494 12.1875 4.99158 12.1875 6.5ZM8.125 4.875C8.125 5.30598 7.95379 5.7193 7.64905 6.02405C7.3443 6.3288 6.93098 6.5 6.5 6.5C6.06902 6.5 5.6557 6.3288 5.35095 6.02405C5.0462 5.7193 4.875 5.30598 4.875 4.875C4.875 4.44402 5.0462 4.0307 5.35095 3.72595C5.6557 3.4212 6.06902 3.25 6.5 3.25C6.93098 3.25 7.3443 3.4212 7.64905 3.72595C7.95379 4.0307 8.125 4.44402 8.125 4.875ZM6.5 7.3125C5.01719 7.3125 3.71962 8.10631 3.01031 9.29256C3.42869 9.81618 3.95968 10.2388 4.56383 10.529C5.16799 10.8192 5.82977 10.9695 6.5 10.9688C7.17009 10.9694 7.83172 10.819 8.43572 10.5288C9.03972 10.2386 9.57058 9.81607 9.98887 9.29256C9.62861 8.68863 9.11766 8.18863 8.50607 7.84154C7.89448 7.49444 7.20322 7.31214 6.5 7.3125Z" fill="#F8F8F8"/>
</g>
<defs>
<clipPath id="clip0_106_1727">
<rect width="13" height="13" fill="white"/>
</clipPath>
</defs>
</svg>
