<svg width="30" height="30" viewBox="0 0 30 30" fill="none" xmlns="http://www.w3.org/2000/svg">
<rect width="30" height="30" rx="5" fill="#F2F2F2"/>
<path d="M21.3242 10.5715C20.492 10.3935 19.7383 9.9543 19.1732 9.31797C18.6081 8.68163 18.261 7.88143 18.1825 7.034V6.6665H15.3117V18.0598C15.3099 18.5642 15.1501 19.0554 14.8548 19.4643C14.5595 19.8732 14.1435 20.1793 13.6652 20.3396C13.187 20.4999 12.6705 20.5063 12.1884 20.3579C11.7063 20.2095 11.2829 19.9138 10.9775 19.5123C10.6674 19.1042 10.4954 18.6078 10.4864 18.0953C10.4774 17.5827 10.6319 17.0807 10.9275 16.6618C11.2231 16.243 11.6444 15.9293 12.1303 15.766C12.6162 15.6028 13.1415 15.5986 13.63 15.754V12.8373C12.5407 12.6868 11.4316 12.8804 10.4578 13.3912C9.48399 13.902 8.69421 14.7045 8.19891 15.6862C7.70361 16.668 7.52757 17.7801 7.69541 18.8668C7.86325 19.9536 8.36659 20.9607 9.13501 21.7473C9.86781 22.4971 10.8074 23.0116 11.8339 23.2249C12.8604 23.4383 13.9271 23.341 14.898 22.9454C15.869 22.5497 16.7 21.8738 17.285 21.0037C17.87 20.1337 18.1824 19.1091 18.1825 18.0607V12.239C19.3427 13.0685 20.7338 13.5132 22.16 13.5107V10.6582C21.8791 10.6585 21.599 10.6295 21.3242 10.5715Z" fill="#2F2F2F"/>
</svg>
