<svg width="15" height="15" viewBox="0 0 15 15" fill="none" xmlns="http://www.w3.org/2000/svg">
<path fill-rule="evenodd" clip-rule="evenodd" d="M4.6875 3.04688V3.75H2.57812C2.39164 3.75 2.2128 3.82408 2.08094 3.95594C1.94908 4.0878 1.875 4.26664 1.875 4.45312C1.875 4.63961 1.94908 4.81845 2.08094 4.95031C2.2128 5.08217 2.39164 5.15625 2.57812 5.15625H2.85937L3.62344 12.7969C3.65829 13.1437 3.82069 13.4652 4.07913 13.699C4.33757 13.9328 4.67365 14.0624 5.02219 14.0625H9.97688C10.3256 14.0626 10.6619 13.9332 10.9205 13.6993C11.1792 13.4654 11.3417 13.1438 11.3766 12.7969L12.1406 5.15625H12.4219C12.6084 5.15625 12.7872 5.08217 12.9191 4.95031C13.0509 4.81845 13.125 4.63961 13.125 4.45312C13.125 4.26664 13.0509 4.0878 12.9191 3.95594C12.7872 3.82408 12.6084 3.75 12.4219 3.75H10.3125V3.04688C10.3125 2.48743 10.0903 1.95091 9.69468 1.55532C9.29909 1.15974 8.76257 0.9375 8.20312 0.9375H6.79688C6.23743 0.9375 5.70091 1.15974 5.30532 1.55532C4.90974 1.95091 4.6875 2.48743 4.6875 3.04688ZM6.79688 2.34375C6.61039 2.34375 6.43155 2.41783 6.29969 2.54969C6.16783 2.68155 6.09375 2.86039 6.09375 3.04688V3.75H8.90625V3.04688C8.90625 2.86039 8.83217 2.68155 8.70031 2.54969C8.56845 2.41783 8.38961 2.34375 8.20312 2.34375H6.79688ZM5.67188 5.625C5.76424 5.62033 5.85661 5.63393 5.94371 5.66501C6.03081 5.6961 6.11092 5.74406 6.17946 5.80615C6.24799 5.86824 6.30361 5.94324 6.34311 6.02686C6.38262 6.11048 6.40524 6.20106 6.40969 6.29344L6.6675 11.4497C6.67437 11.6345 6.60818 11.8145 6.48325 11.9509C6.35831 12.0872 6.18471 12.1688 6.00002 12.1781C5.81534 12.1873 5.63444 12.1234 5.49652 12.0003C5.35859 11.8771 5.27474 11.7046 5.26312 11.52L5.00531 6.36375C5.00051 6.27146 5.01395 6.17913 5.04486 6.09204C5.07577 6.00495 5.12355 5.92481 5.18545 5.8562C5.24736 5.78759 5.32219 5.73185 5.40565 5.69218C5.48911 5.65251 5.57958 5.62968 5.67188 5.625ZM9.32812 5.625C9.42042 5.62956 9.5109 5.65227 9.59441 5.69183C9.67792 5.73139 9.75281 5.78702 9.81481 5.85555C9.8768 5.92407 9.92468 6.00414 9.95571 6.09118C9.98673 6.17822 10.0003 6.27053 9.99562 6.36281L9.73781 11.5191C9.7262 11.7036 9.64234 11.8762 9.50442 11.9993C9.3665 12.1225 9.1856 12.1864 9.00092 12.1771C8.81623 12.1679 8.64262 12.0863 8.51769 11.9499C8.39276 11.8136 8.32656 11.6335 8.33344 11.4487L8.59125 6.2925C8.60071 6.10644 8.68362 5.93174 8.82178 5.80677C8.95994 5.68179 9.14205 5.61582 9.32812 5.625Z" fill="#909090"/>
</svg>
