<svg width="20" height="20" viewBox="0 0 20 20" fill="none" xmlns="http://www.w3.org/2000/svg">
<g opacity="0.7" clip-path="url(#clip0_16_929)">
<path d="M10.8333 18.3334H5.49239C4.20457 18.3334 3.18026 17.7067 2.26055 16.8306C0.377803 15.0368 3.469 13.6034 4.64797 12.9014C6.27548 11.9323 8.16058 11.5337 10 11.7056" stroke="white" stroke-width="1.75" stroke-linecap="round" stroke-linejoin="round"/>
<path d="M12.9167 5.41675C12.9167 7.48781 11.2377 9.16675 9.16666 9.16675C7.0956 9.16675 5.41666 7.48781 5.41666 5.41675C5.41666 3.34568 7.0956 1.66675 9.16666 1.66675C11.2377 1.66675 12.9167 3.34568 12.9167 5.41675Z" stroke="white" stroke-width="1.75"/>
<path d="M17 17.0001L18.3333 18.3334M17.6667 14.6667C17.6667 13.0099 16.3235 11.6667 14.6667 11.6667C13.0098 11.6667 11.6667 13.0099 11.6667 14.6667C11.6667 16.3236 13.0098 17.6667 14.6667 17.6667C16.3235 17.6667 17.6667 16.3236 17.6667 14.6667Z" stroke="white" stroke-width="1.75" stroke-linecap="round" stroke-linejoin="round"/>
</g>
<defs>
<clipPath id="clip0_16_929">
<rect width="20" height="20" fill="white"/>
</clipPath>
</defs>
</svg>
