<svg width="20" height="20" viewBox="0 0 20 20" fill="none" xmlns="http://www.w3.org/2000/svg">
<g opacity="0.7" clip-path="url(#clip0_16_935)">
<path d="M10.8333 18.3334H5.49239C4.20457 18.3334 3.18026 17.7067 2.26055 16.8306C0.377803 15.0368 3.469 13.6034 4.64797 12.9014C6.27548 11.9323 8.16058 11.5337 10 11.7056" stroke="white" stroke-width="1.75" stroke-linecap="round" stroke-linejoin="round"/>
<path d="M12.9167 5.41675C12.9167 7.48781 11.2377 9.16675 9.16666 9.16675C7.0956 9.16675 5.41666 7.48781 5.41666 5.41675C5.41666 3.34568 7.0956 1.66675 9.16666 1.66675C11.2377 1.66675 12.9167 3.34568 12.9167 5.41675Z" stroke="white" stroke-width="1.75"/>
<path d="M17 17.0001L18.3333 18.3334M17.6667 14.6667C17.6667 13.0099 16.3235 11.6667 14.6667 11.6667C13.0098 11.6667 11.6667 13.0099 11.6667 14.6667C11.6667 16.3236 13.0098 17.6667 14.6667 17.6667C16.3235 17.6667 17.6667 16.3236 17.6667 14.6667Z" stroke="white" stroke-width="1.75" stroke-linecap="round" stroke-linejoin="round"/>
<path d="M17.4433 1.13412L17.8099 1.87343C17.8599 1.97635 17.9932 2.07507 18.1057 2.09397L18.7702 2.20529C19.1951 2.2767 19.2951 2.58754 18.9889 2.89419L18.4723 3.41506C18.3848 3.50328 18.3369 3.6734 18.364 3.79522L18.5119 4.44002C18.6285 4.9504 18.3598 5.14783 17.9119 4.88109L17.2891 4.50933C17.1766 4.44212 16.9912 4.44212 16.8767 4.50933L16.2538 4.88109C15.808 5.14783 15.5372 4.9483 15.6539 4.44002L15.8018 3.79522C15.8288 3.6734 15.781 3.50328 15.6935 3.41506L15.1769 2.89419C14.8727 2.58754 14.9706 2.2767 15.3955 2.20529L16.0601 2.09397C16.1705 2.07507 16.3038 1.97635 16.3538 1.87343L16.7204 1.13412C16.9204 0.732962 17.2453 0.732962 17.4433 1.13412Z" stroke="white" stroke-width="0.8" stroke-linecap="round" stroke-linejoin="round"/>
</g>
<defs>
<clipPath id="clip0_16_935">
<rect width="20" height="20" fill="white"/>
</clipPath>
</defs>
</svg>
