<svg width="12" height="8" viewBox="0 0 12 8" fill="none" xmlns="http://www.w3.org/2000/svg">
<path fill-rule="evenodd" clip-rule="evenodd" d="M0.328269 0.485214C0.538732 0.279018 0.824025 0.1632 1.12148 0.1632C1.41893 0.1632 1.70423 0.279018 1.91469 0.485214L5.98551 4.47846L10.0563 0.485214C10.1591 0.377034 10.283 0.290266 10.4207 0.230085C10.5584 0.169905 10.707 0.137545 10.8577 0.134937C11.0084 0.132328 11.1582 0.159524 11.2979 0.214903C11.4377 0.270281 11.5646 0.352707 11.6712 0.457264C11.7778 0.561821 11.8619 0.686366 11.9183 0.823469C11.9748 0.960573 12.0025 1.10743 11.9998 1.25527C11.9972 1.40311 11.9642 1.54891 11.9028 1.68398C11.8415 1.81904 11.753 1.9406 11.6427 2.04141L6.77872 6.81275C6.56825 7.01895 6.28296 7.13477 5.98551 7.13477C5.68805 7.13477 5.40276 7.01895 5.1923 6.81275L0.328269 2.04141C0.118068 1.83495 0 1.5551 0 1.26331C0 0.971524 0.118068 0.691667 0.328269 0.485214Z" fill="#8B8B8B"/>
</svg>
